<?xml version="1.0" standalone="no"?>
<!DOCTYPE svg PUBLIC "-//W3C//DTD SVG 20010904//EN"
 "http://www.w3.org/TR/2001/REC-SVG-20010904/DTD/svg10.dtd">
<svg version="1.0" xmlns="http://www.w3.org/2000/svg"
 width="2500.000000pt" height="2500.000000pt" viewBox="0 0 2500.000000 2500.000000"
 preserveAspectRatio="xMidYMid meet">

<g transform="translate(0.000000,2500.000000) scale(0.100000,-0.100000)"
fill="#000000" stroke="none">
<path d="M0 12500 l0 -12500 12500 0 12500 0 0 12500 0 12500 -12500 0 -12500
0 0 -12500z m12630 6840 c298 -1128 332 -1255 336 -1259 2 -3 8 0 13 5 9 9
254 351 745 1039 154 215 285 396 292 404 11 12 12 11 9 -5 -3 -10 -16 -95
-30 -189 -14 -93 -35 -226 -45 -295 -23 -147 -40 -253 -75 -485 -15 -93 -60
-384 -100 -645 -40 -261 -85 -551 -100 -645 -14 -93 -28 -176 -30 -183 -4 -10
-205 -12 -987 -10 -541 1 -1062 4 -1157 7 l-175 6 -38 265 c-20 146 -71 508
-113 805 -77 550 -192 1362 -199 1403 -2 12 -2 22 0 22 2 0 112 -158 300 -430
43 -63 224 -326 402 -585 177 -258 326 -471 330 -472 4 -2 43 131 86 295 43
163 100 376 126 472 26 96 96 355 155 575 59 220 110 404 113 410 7 11 -10 73
142 -505z m-2187 -1152 c2 -7 30 -143 61 -303 31 -159 79 -404 106 -543 28
-140 50 -258 50 -263 0 -5 -555 -9 -1420 -9 l-1421 0 4 -2957 c3 -2214 6
-2979 15 -3043 63 -448 145 -730 309 -1055 141 -281 336 -535 546 -713 45 -38
289 -219 542 -403 633 -458 1577 -1143 2130 -1544 77 -56 307 -222 510 -370
204 -147 424 -308 491 -356 67 -49 127 -89 134 -89 6 0 116 76 244 168 248
181 460 335 1236 897 1092 792 1256 911 1730 1254 223 162 446 324 495 361
547 413 901 1132 964 1960 5 63 9 1414 10 3003 l1 2887 -1450 0 c-1253 0
-1450 2 -1450 14 0 8 32 165 71 348 88 418 149 723 149 748 0 20 23 20 2467
20 l2468 0 -562 -562 -563 -563 -3 -2965 c-2 -1631 -6 -2978 -10 -2995 -3 -16
-11 -86 -17 -154 -42 -460 -199 -1011 -407 -1425 -192 -382 -405 -677 -690
-957 -184 -180 -139 -146 -978 -754 -143 -104 -438 -317 -655 -475 -217 -158
-512 -371 -655 -475 -143 -104 -348 -252 -455 -330 -107 -78 -337 -244 -510
-370 -173 -126 -394 -285 -490 -355 -96 -70 -341 -248 -545 -395 -203 -147
-376 -272 -382 -277 -9 -7 -86 43 -260 169 -137 99 -603 438 -1038 753 -434
315 -959 695 -1165 845 -206 149 -589 427 -850 616 -261 190 -621 450 -799
579 -361 262 -482 362 -652 536 -450 464 -780 1091 -944 1799 -46 200 -73 369
-90 575 -4 41 -10 86 -13 100 -3 14 -8 1359 -9 2990 l-3 2965 -563 563 -562
562 2436 0 c1940 0 2438 -3 2442 -12z m3239 -2145 c195 -55 344 -181 438 -368
64 -126 81 -199 87 -361 6 -151 9 -125 -83 -694 -66 -408 -138 -564 -359 -786
-141 -142 -248 -212 -401 -263 -116 -39 -169 -41 -931 -41 -698 0 -742 -1
-747 -17 -3 -10 -19 -94 -36 -188 -17 -93 -44 -240 -60 -325 -15 -85 -27 -156
-26 -158 2 -1 756 -2 1676 -2 l1672 0 -7 -47 c-3 -27 -31 -203 -61 -393 -73
-453 -113 -705 -120 -757 l-7 -43 -958 0 -959 0 -5 -22 c-2 -13 -16 -99 -31
-193 -14 -93 -41 -267 -59 -385 -19 -118 -48 -305 -65 -415 -17 -110 -40 -256
-50 -325 -11 -69 -26 -164 -33 -212 l-14 -88 960 0 959 0 -6 -27 c-3 -16 -19
-116 -36 -223 -16 -107 -45 -294 -65 -415 -19 -121 -47 -294 -60 -385 -14 -91
-28 -171 -30 -178 -4 -10 -230 -12 -1112 -11 -679 0 -1131 4 -1168 10 -297 49
-527 289 -586 612 -23 130 -14 261 46 642 31 198 99 632 150 965 52 333 97
615 100 628 l5 22 -185 0 c-183 0 -185 0 -190 -22 -3 -13 -19 -95 -35 -183
-16 -88 -45 -245 -64 -350 -20 -104 -36 -190 -36 -192 0 -2 -248 -3 -551 -3
l-552 0 7 38 c3 20 13 75 21 122 19 104 23 124 130 730 89 505 205 1163 231
1310 8 47 28 157 44 245 16 88 54 304 85 480 31 176 65 367 75 425 11 58 38
211 60 340 22 129 43 247 46 263 l6 27 -306 0 c-274 0 -306 2 -306 16 0 9 9
71 20 138 11 66 33 209 50 316 42 263 64 405 95 592 14 86 25 159 25 162 0 2
8 7 18 9 9 3 737 4 1617 3 l1600 -1 77 -22z"/>
<path d="M11880 14748 c-6 -46 -18 -121 -26 -167 -8 -46 -14 -85 -14 -87 0 -2
261 -4 580 -4 l580 0 4 23 c8 37 46 286 46 302 0 13 -73 15 -579 15 l-579 0
-12 -82z"/>
</g>
</svg>
